<mxfile host="app.diagrams.net" agent="Mozilla/5.0 (X11; Linux x86_64) AppleWebKit/537.36 (KHTML, like Gecko) Chrome/126.0.0.0 Safari/537.36" version="24.7.4">
  <diagram name="Page-1" id="NurpLw2xEa40Phwv5zf1">
    <mxGraphModel dx="1346" dy="739" grid="1" gridSize="10" guides="1" tooltips="1" connect="1" arrows="1" fold="1" page="1" pageScale="1" pageWidth="850" pageHeight="1100" math="0" shadow="0">
      <root>
        <mxCell id="0" />
        <mxCell id="1" parent="0" />
        <mxCell id="85bDa7K8-nhF0pPZqGWw-1" value="PV&lt;div&gt;Panel&lt;/div&gt;" style="whiteSpace=wrap;html=1;aspect=fixed;" vertex="1" parent="1">
          <mxGeometry x="180" y="80" width="80" height="80" as="geometry" />
        </mxCell>
        <mxCell id="85bDa7K8-nhF0pPZqGWw-12" style="edgeStyle=orthogonalEdgeStyle;rounded=0;orthogonalLoop=1;jettySize=auto;html=1;" edge="1" parent="1" source="85bDa7K8-nhF0pPZqGWw-2" target="85bDa7K8-nhF0pPZqGWw-11">
          <mxGeometry relative="1" as="geometry" />
        </mxCell>
        <mxCell id="85bDa7K8-nhF0pPZqGWw-2" value="Charge Controller" style="shape=process;whiteSpace=wrap;html=1;backgroundOutline=1;" vertex="1" parent="1">
          <mxGeometry x="290" y="230" width="120" height="60" as="geometry" />
        </mxCell>
        <mxCell id="85bDa7K8-nhF0pPZqGWw-8" style="edgeStyle=orthogonalEdgeStyle;rounded=0;orthogonalLoop=1;jettySize=auto;html=1;" edge="1" parent="1" source="85bDa7K8-nhF0pPZqGWw-4" target="85bDa7K8-nhF0pPZqGWw-2">
          <mxGeometry relative="1" as="geometry" />
        </mxCell>
        <mxCell id="85bDa7K8-nhF0pPZqGWw-4" value="PV&lt;div&gt;Panel&lt;/div&gt;" style="whiteSpace=wrap;html=1;aspect=fixed;" vertex="1" parent="1">
          <mxGeometry x="270" y="80" width="80" height="80" as="geometry" />
        </mxCell>
        <mxCell id="85bDa7K8-nhF0pPZqGWw-9" style="edgeStyle=orthogonalEdgeStyle;rounded=0;orthogonalLoop=1;jettySize=auto;html=1;" edge="1" parent="1" source="85bDa7K8-nhF0pPZqGWw-5" target="85bDa7K8-nhF0pPZqGWw-2">
          <mxGeometry relative="1" as="geometry" />
        </mxCell>
        <mxCell id="85bDa7K8-nhF0pPZqGWw-5" value="PV&lt;div&gt;Panel&lt;/div&gt;" style="whiteSpace=wrap;html=1;aspect=fixed;" vertex="1" parent="1">
          <mxGeometry x="360" y="80" width="80" height="80" as="geometry" />
        </mxCell>
        <mxCell id="85bDa7K8-nhF0pPZqGWw-10" style="edgeStyle=orthogonalEdgeStyle;rounded=0;orthogonalLoop=1;jettySize=auto;html=1;entryX=1;entryY=0.75;entryDx=0;entryDy=0;" edge="1" parent="1" source="85bDa7K8-nhF0pPZqGWw-6" target="85bDa7K8-nhF0pPZqGWw-2">
          <mxGeometry relative="1" as="geometry">
            <Array as="points">
              <mxPoint x="500" y="195" />
              <mxPoint x="440" y="195" />
              <mxPoint x="440" y="275" />
            </Array>
          </mxGeometry>
        </mxCell>
        <mxCell id="85bDa7K8-nhF0pPZqGWw-6" value="PV&lt;div&gt;Panel&lt;/div&gt;" style="whiteSpace=wrap;html=1;aspect=fixed;" vertex="1" parent="1">
          <mxGeometry x="450" y="80" width="80" height="80" as="geometry" />
        </mxCell>
        <mxCell id="85bDa7K8-nhF0pPZqGWw-7" style="edgeStyle=orthogonalEdgeStyle;rounded=0;orthogonalLoop=1;jettySize=auto;html=1;entryX=-0.027;entryY=0.623;entryDx=0;entryDy=0;entryPerimeter=0;" edge="1" parent="1" source="85bDa7K8-nhF0pPZqGWw-1" target="85bDa7K8-nhF0pPZqGWw-2">
          <mxGeometry relative="1" as="geometry">
            <Array as="points">
              <mxPoint x="220" y="195" />
              <mxPoint x="267" y="195" />
            </Array>
          </mxGeometry>
        </mxCell>
        <mxCell id="85bDa7K8-nhF0pPZqGWw-14" style="edgeStyle=orthogonalEdgeStyle;rounded=0;orthogonalLoop=1;jettySize=auto;html=1;" edge="1" parent="1" source="85bDa7K8-nhF0pPZqGWw-11" target="85bDa7K8-nhF0pPZqGWw-13">
          <mxGeometry relative="1" as="geometry" />
        </mxCell>
        <mxCell id="85bDa7K8-nhF0pPZqGWw-11" value="Storage Bank" style="shape=cylinder3;whiteSpace=wrap;html=1;boundedLbl=1;backgroundOutline=1;size=15;" vertex="1" parent="1">
          <mxGeometry x="320" y="350" width="60" height="80" as="geometry" />
        </mxCell>
        <mxCell id="85bDa7K8-nhF0pPZqGWw-16" style="edgeStyle=orthogonalEdgeStyle;rounded=0;orthogonalLoop=1;jettySize=auto;html=1;" edge="1" parent="1" source="85bDa7K8-nhF0pPZqGWw-13" target="85bDa7K8-nhF0pPZqGWw-15">
          <mxGeometry relative="1" as="geometry" />
        </mxCell>
        <mxCell id="85bDa7K8-nhF0pPZqGWw-13" value="Inverter" style="shape=process;whiteSpace=wrap;html=1;backgroundOutline=1;" vertex="1" parent="1">
          <mxGeometry x="290" y="490" width="120" height="60" as="geometry" />
        </mxCell>
        <mxCell id="85bDa7K8-nhF0pPZqGWw-15" value="Electrical Load" style="rhombus;whiteSpace=wrap;html=1;" vertex="1" parent="1">
          <mxGeometry x="310" y="600" width="80" height="80" as="geometry" />
        </mxCell>
      </root>
    </mxGraphModel>
  </diagram>
</mxfile>
